<svg width="136.000000" height="68.000000" viewBox="0 0 136 68" fill="none" xmlns="http://www.w3.org/2000/svg" xmlns:xlink="http://www.w3.org/1999/xlink">
	<desc>
			Created with Pixso.
	</desc>
	<defs/>
	<path id="Vector" d="M41.41 51.28C40.14 47.73 37.51 45.95 33.53 45.95L32.28 45.95L32.28 67.84L33.53 67.84C36.61 67.84 38.88 66.63 40.34 64.21C41.57 62.14 42.19 59.51 42.19 56.31C42.19 54.41 41.93 52.73 41.41 51.28Z" fill="#FFFFFF" fill-opacity="1.000000" fill-rule="nonzero"/>
	<path id="Vector" d="M19.88 51.54C21.16 55.09 23.78 56.86 27.76 56.86L29.01 56.86L29.01 34.98L27.76 34.98C24.68 34.98 22.42 36.19 20.95 38.61C19.72 40.68 19.11 43.31 19.11 46.51C19.11 48.4 19.36 50.08 19.88 51.54Z" fill="#FFFFFF" fill-opacity="1.000000" fill-rule="nonzero"/>
	<path id="Vector" d="M-1 0.02L15.69 0.02L15.69 5.82L4.99 5.82L4.99 8.72L13.88 8.72L13.88 14.22L4.99 14.22L4.99 17.15L15.69 17.15L15.69 22.94L-1 22.94L-1 0.02Z" fill="#FFFFFF" fill-opacity="1.000000" fill-rule="nonzero"/>
	<path id="Vector" d="M24.09 3.05e-5L45.7 3.05e-5L34.89 23.41L24.09 3.05e-5ZM34.89 20.51L43.82 1.21L26 1.21L34.89 20.51Z" fill="#FFFFFF" fill-opacity="1.000000" fill-rule="nonzero"/>
	<path id="Vector" d="M54.32 0.02L71.02 0.02L71.02 5.82L60.32 5.82L60.32 8.72L69.21 8.72L69.21 14.22L60.32 14.22L60.32 17.15L71.02 17.15L71.02 22.94L54.32 22.94L54.32 0.02Z" fill="#FFFFFF" fill-opacity="1.000000" fill-rule="nonzero"/>
	<path id="Vector" d="M81.3 22.91L81.3 3.05e-5L82.58 3.05e-5L98.59 15.57L98.59 3.05e-5L99.81 3.05e-5L99.81 22.92L81.3 22.91Z" fill="#FFFFFF" fill-opacity="1.000000" fill-rule="nonzero"/>
	<path id="Vector" d="M117.3 22.94L117.3 5.82L108.63 5.82L108.63 0.02L127.14 0.02L127.14 5.82L118.48 5.82L118.48 22.94L117.3 22.94Z" fill="#FFFFFF" fill-opacity="1.000000" fill-rule="nonzero"/>
	<path id="Vector" d="M8.84 39.54C10.29 39.54 11.44 39.76 12.3 40.2C13.28 40.68 14.11 41.43 14.68 42.37C15.25 43.3 15.55 44.38 15.53 45.47C15.53 46.53 15.24 47.56 14.67 48.45C14.1 49.37 13.29 50.11 12.33 50.61C13.52 51.03 14.56 51.78 15.33 52.78C16.13 53.77 16.56 55.01 16.55 56.27C16.56 57.38 16.25 58.47 15.68 59.42C15.11 60.36 14.31 61.14 13.35 61.68C12.85 61.95 12.3 62.15 11.74 62.27C11.15 62.4 10.36 62.47 9.37 62.47L-0.78 62.47L-0.78 39.54L8.84 39.54Z" fill="#FFFFFF" fill-opacity="1.000000" fill-rule="nonzero"/>
	<path id="Vector" d="M47.46 60.8C45.73 59.3 44.88 57.04 44.9 54.04L50.27 54.04C50.25 55.29 50.62 56.24 51.39 56.9C52.16 57.56 53.24 57.89 54.62 57.89C55.76 57.89 56.66 57.7 57.32 57.33C57.98 56.96 58.31 56.38 58.31 55.62C58.31 54.98 57.97 54.52 57.3 54.23C56.66 53.96 56 53.75 55.31 53.62C54.65 53.5 54.25 53.43 54.09 53.4C52.6 53.13 51.14 52.72 49.71 52.2C48.52 51.75 47.45 51.02 46.62 50.06C45.78 49.09 45.37 47.82 45.37 46.24C45.37 44.65 45.78 43.31 46.62 42.2C47.45 41.09 48.57 40.26 49.96 39.71C51.41 39.15 52.96 38.87 54.52 38.89C56.52 38.89 58.25 39.26 59.71 40.01C61.17 40.76 62.32 41.89 63.15 43.4C63.54 44.04 63.79 44.75 63.91 45.49C63.99 46.14 64.04 46.8 64.04 47.45L58.67 47.45C58.67 46.27 58.35 45.4 57.72 44.84C57.08 44.28 56.09 44 54.75 44C53.68 44 52.84 44.18 52.25 44.56C51.66 44.93 51.36 45.43 51.36 46.07C51.36 46.77 51.76 47.29 52.55 47.62C53.52 48 54.52 48.3 55.54 48.51C57.52 48.9 59.06 49.28 60.17 49.64C61.29 50.01 62.28 50.68 63.05 51.57C63.86 52.49 64.27 53.79 64.27 55.46C64.27 57.04 63.83 58.4 62.95 59.54C62.07 60.68 60.92 61.56 59.48 62.16C58 62.77 56.42 63.08 54.82 63.06C51.63 63.06 49.18 62.31 47.46 60.8Z" fill="#FFFFFF" fill-opacity="1.000000" fill-rule="nonzero"/>
	<path id="Vector" d="M77.77 62.47L77.77 45.34L69.11 45.34L69.11 39.54L87.62 39.54L87.62 45.34L78.96 45.34L78.96 62.47L77.77 62.47Z" fill="#FFFFFF" fill-opacity="1.000000" fill-rule="nonzero"/>
	<path id="Vector" d="M93.85 39.54L110.54 39.54L110.54 45.34L99.84 45.34L99.84 48.24L108.73 48.24L108.73 53.74L99.84 53.74L99.84 56.67L110.54 56.67L110.54 62.47L93.85 62.47L93.85 39.54Z" fill="#FFFFFF" fill-opacity="1.000000" fill-rule="nonzero"/>
	<path id="Vector" d="M135.28 62.47L117.66 62.47L117.66 39.54L126.58 39.54C128.49 39.54 130.05 39.88 131.26 40.56C132.41 41.19 133.37 42.13 134.02 43.27C134.69 44.42 135.03 45.72 135.01 47.05C135.03 48.72 134.47 50.34 133.43 51.65C132.44 52.96 131.03 53.9 129.45 54.33L135.28 62.47ZM118.87 41.55L118.87 53.38L127.34 53.38L118.87 41.55ZM118.87 61.25L132.97 61.25L128.16 54.56L127.14 54.6L118.87 54.6L118.87 61.25ZM119.73 40.76L128.69 53.28C130.13 52.99 131.42 52.21 132.35 51.07C133.3 49.95 133.81 48.52 133.79 47.05C133.81 45.89 133.5 44.75 132.9 43.76C132.31 42.77 131.44 41.98 130.4 41.49C129.44 41 128.17 40.76 126.61 40.76L119.73 40.76Z" fill="#FFFFFF" fill-opacity="1.000000" fill-rule="nonzero"/>
</svg>
